/* XPM */
static char * collectible_xpm[] = {
"64 64 177 2",
"  	c #000000",
". 	c #484848",
"+ 	c #7A7A7A",
"@ 	c #C7C7C7",
"# 	c #8C8C8C",
"$ 	c #3D3D3D",
"% 	c #868686",
"& 	c #4C4948",
"* 	c #989896",
"= 	c #4D4A49",
"- 	c #070707",
"; 	c #222222",
"> 	c #060402",
", 	c #050301",
"' 	c #010101",
") 	c #404040",
"! 	c #7E6C54",
"~ 	c #766040",
"{ 	c #7A654A",
"] 	c #60574E",
"^ 	c #534E4B",
"/ 	c #59534E",
"( 	c #675C51",
"_ 	c #7B674C",
": 	c #766141",
"< 	c #81705A",
"[ 	c #8A7D6C",
"} 	c #786345",
"| 	c #8F8274",
"1 	c #9B9288",
"2 	c #A09990",
"3 	c #AEA9A4",
"4 	c #B4B1AD",
"5 	c #C2C1C0",
"6 	c #C5C5C4",
"7 	c #786346",
"8 	c #7A664B",
"9 	c #59472F",
"0 	c #715C3E",
"a 	c #847461",
"b 	c #8F8374",
"c 	c #4B3C27",
"d 	c #93887C",
"e 	c #4F4029",
"f 	c #040404",
"g 	c #A59E97",
"h 	c #463824",
"i 	c #B9B7B4",
"j 	c #C7C6C6",
"k 	c #5A492F",
"l 	c #7C694F",
"m 	c #857561",
"n 	c #030303",
"o 	c #0C0803",
"p 	c #887967",
"q 	c #94897D",
"r 	c #312617",
"s 	c #3B2F1D",
"t 	c #978D82",
"u 	c #A6A099",
"v 	c #3A2E1D",
"w 	c #AAA59F",
"x 	c #BAB8B6",
"y 	c #3E311F",
"z 	c #BEBCBA",
"A 	c #776143",
"B 	c #7D6A51",
"C 	c #7E6C55",
"D 	c #897A69",
"E 	c #8B7E6E",
"F 	c #998F85",
"G 	c #9C9389",
"H 	c #ACA7A2",
"I 	c #715C3D",
"J 	c #AFABA6",
"K 	c #C0BFBE",
"L 	c #020202",
"M 	c #382C1B",
"N 	c #352A1A",
"O 	c #806E57",
"P 	c #81705B",
"Q 	c #8D8071",
"R 	c #8F8375",
"S 	c #9E968D",
"T 	c #A19991",
"U 	c #B2AEAA",
"V 	c #C4C4C3",
"W 	c #ABA6A0",
"X 	c #908476",
"Y 	c #7D6A52",
"Z 	c #796447",
"` 	c #877866",
" .	c #9E958C",
"..	c #BCBAB8",
"+.	c #C6C5C5",
"@.	c #B5B2AF",
"#.	c #A19A92",
"$.	c #83725D",
"%.	c #7C6950",
"&.	c #7F6D56",
"*.	c #8A7C6B",
"=.	c #999086",
"-.	c #ABA6A1",
";.	c #BFBEBC",
">.	c #C3C3C3",
",.	c #BFBFBF",
"'.	c #BBBBBB",
").	c #B4B4B4",
"!.	c #ADADAD",
"~.	c #A8A8A8",
"{.	c #A2A2A2",
"].	c #9F9F9F",
"^.	c #B5B5B5",
"/.	c #AAAAAA",
"(.	c #9E9E9E",
"_.	c #919191",
":.	c #818181",
"<.	c #737373",
"[.	c #676767",
"}.	c #5F5F5F",
"|.	c #5A5A5A",
"1.	c #A6A6A6",
"2.	c #929292",
"3.	c #7C7C7C",
"4.	c #656565",
"5.	c #515151",
"6.	c #323232",
"7.	c #272727",
"8.	c #1F1F1F",
"9.	c #1B1B1B",
"0.	c #131313",
"a.	c #989898",
"b.	c #7F7F7F",
"c.	c #636363",
"d.	c #4B4B4B",
"e.	c #333333",
"f.	c #0E0E0E",
"g.	c #BDBDBD",
"h.	c #ACACAC",
"i.	c #939393",
"j.	c #757575",
"k.	c #585858",
"l.	c #242424",
"m.	c #828282",
"n.	c #626262",
"o.	c #AFAFAF",
"p.	c #979797",
"q.	c #797979",
"r.	c #575757",
"s.	c #373737",
"t.	c #B2B2B2",
"u.	c #9B9B9B",
"v.	c #7D7D7D",
"w.	c #5D5D5D",
"x.	c #BABABA",
"y.	c #8B8B8B",
"z.	c #6B6B6B",
"A.	c #4E4E4E",
"B.	c #181818",
"C.	c #B7B7B7",
"D.	c #A3A3A3",
"E.	c #6E6E6E",
"F.	c #535353",
"G.	c #3A3A3A",
"H.	c #ABABAB",
"I.	c #808080",
"J.	c #686868",
"K.	c #505050",
"L.	c #3C3C3C",
"M.	c #292929",
"N.	c #A9A9A9",
"O.	c #999999",
"P.	c #898989",
"Q.	c #434343",
"R.	c #3F3F3F",
"S.	c #B6B6B6",
"T.	c #AEAEAE",
"                                                                                                                                ",
"  . . . . . . . . . . . . . . . . . . . . . . . . . . . . . . . . . . . . . . . . . . . . . . . . . . . . . . . . . . . . . .   ",
"  . + + + + + + + + + + + + + + + + + + + + + + + + + + + + + + + + + + + + + + + + + + + + + + + + + + + + + + + + + + + + .   ",
"  . + @ @ @ @ @ @ @ @ @ @ @ @ @ @ @ @ @ @ @ @ @ @ @ @ @ @ @ @ @ @ @ @ @ @ @ @ @ @ @ @ @ @ @ @ @ @ @ @ @ @ @ @ @ @ @ @ @ @ + .   ",
"  . + @ @ @ @ @ @ @ @ @ @ @ @ @ @ @ @ # $ $ $ $ $ $ $ $ $ $ $ $ $ $ $ $ $ $ $ $ $ $ $ $ % @ @ @ @ @ @ @ @ @ @ @ @ @ @ @ @ + .   ",
"  . + @ @ @ @ @ @ @ @ @ @ @ @ $ $ $ $ $ $ $ $ $ $ $ $ $ $ $ $ $ $ $ $ $ $ $ $ $ $ $ $ $ $ $ $ $ $ @ @ @ @ @ @ @ @ @ @ @ @ + .   ",
"  . + @ @ @ @ @ @ @ @ @ @ @ @     & & * $ $ $ $ $ $ $ $ $ $ $ $ $ $ $ $ $ $ $ $ $ $ $ $ * & &     @ @ @ @ @ @ @ @ @ @ @ @ + .   ",
"  . + @ @ @ @ @ @ @ @ @ @ @ @     & & * * & & &                                 & & & * * & &     @ @ @ @ @ @ @ @ @ @ @ @ + .   ",
"  . + @ @ @ @ @ @ @ @ @ @ @ @     & & * * & & &                                 & & & * * & &     @ @ @ @ @ @ @ @ @ @ @ @ + .   ",
"  . + @ @ @ @ @ @ @ @ @ @       & & & * * & & &                                 & & & * * & & &       @ @ @ @ @ @ @ @ @ @ + .   ",
"  . + @ @ @ @ @ @ @ @ @ @       & & & * * & & &                                 & & & * * & & =     - @ @ @ @ @ @ @ @ @ @ + .   ",
"  . + @ @ @ @ @ @ @ @ @ @ ; > , & & & * * & & &                                 & & & * * & & &   ' ) @ @ @ @ @ @ @ @ @ @ + .   ",
"  . + @ @ @ @ @ @ @ @ @ @ @ ! ~ ~ ~ ~ ~ { ] ^ &                                 & / ( _ : ~ ~ ~ ~ < @ @ @ @ @ @ @ @ @ @ @ + .   ",
"  . + @ @ @ @ @ @ @ @ @ @ @ [ ~ ~ ~ ~ ~ ~ ~ ~ ~ ~ ~ ~ ~ ~ : : } } : : ~ ~ ~ ~ ~ ~ ~ ~ ~ ~ ~ ~ ~ ~ | @ @ @ @ @ @ @ @ @ @ @ + .   ",
"  . + @ @ @ @ @ @ @ @ @ @ @ 1 ~ ~ ~ ~ ~ ~ ~ ~ ~ ~ ~ ~ ~ ~ ~ ~ ~ ~ ~ ~ ~ ~ ~ ~ ~ ~ ~ ~ ~ ~ ~ ~ ~ ~ 2 @ @ @ @ @ @ @ @ @ @ @ + .   ",
"  . + @ @ @ @ @ @ @ @ @ @ @ 3 ~ ~ ~ ~ ~ ~ ~ ~ ~ ~ ~ ~ ~ ~ ~ ~ ~ ~ ~ ~ ~ ~ ~ ~ ~ ~ ~ ~ ~ ~ ~ ~ ~ ~ 4 @ @ @ @ @ @ @ @ @ @ @ + .   ",
"  . + @ @ @ @ @ @ @ @ @ @ @ 5 ~ ~ ~ ~ ~ ~ ~ ~ ~ ~ ~ ~ ~ ~ ~ ~ ~ ~ ~ ~ ~ ~ ~ ~ ~ ~ ~ ~ ~ ~ ~ ~ ~ ~ 6 @ @ @ @ @ @ @ @ @ @ @ + .   ",
"  . + @ @ @ @ @ @ @ @ @ @ @ @ 7 ~ ~ ~ ~ ~ ~ ~ ~ ~ ~ ~ ~ ~ ~ ~ ~ ~ ~ ~ ~ ~ ~ ~ ~ ~ ~ ~ ~ ~ ~ ~ ~ 8 @ @ @ @ @ @ @ @ @ @ @ @ + .   ",
"  . + @ @ @ @ @ @ @ @ @ @ @ @ < ~ ~ ~ ~ ~ ~ ~ ~ ~ ~ ~ ~ ~ ~ ' 9 0 ' - ~ ~ ~ ~ ~ ~ ~ ~ ~ ~ ~ ~ ~ a @ @ @ @ @ @ @ @ @ @ @ @ + .   ",
"  . + @ @ @ @ @ @ @ @ @ @ @ @ b ~ ~ ~ ~ ~ ~ ~ ~ ~ ~ ~ ~ ~ '   c ~ ' ' ' ~ ~ ~ ~ ~ ~ ~ ~ ~ ~ ~ ~ d @ @ @ @ @ @ @ @ @ @ @ @ + .   ",
"  . + @ @ @ @ @ @ @ @ @ @ @ @ 2 ~ ~ ~ ~ ~ ~ ~ ~ ~ ~ ~ ~ ' '   e ~ f ' ' ' ~ ~ ~ ~ ~ ~ ~ ~ ~ ~ ~ g @ @ @ @ @ @ @ @ @ @ @ @ + .   ",
"  . + @ @ @ @ @ @ @ @ @ @ @ @ 4 ~ ~ ~ ~ ~ ~ ~ ~ ~ ~ ~ ' ' ' ' ' ~ h   ' ' ~ ~ ~ ~ ~ ~ ~ ~ ~ ~ ~ i @ @ @ @ @ @ @ @ @ @ @ @ + .   ",
"  . + @ @ @ @ @ @ @ @ @ @ @ @ 6 ~ ~ ~ ~ ~ ~ ~ ~ ~ ~ ~ ' ' ' ' ' ~ e   ' ' ' ~ ~ ~ ~ ~ ~ ~ ~ ~ : j @ @ @ @ @ @ @ @ @ @ @ @ + .   ",
"  . + @ @ @ @ @ @ @ @ @ @ @ @ @ 8 ~ ~ ~ ~ ~ ~ ~ ~ ~ k ' ' ' ' ' ~ e   ' ' ' ~ ~ ~ ~ ~ ~ ~ ~ ~ l @ @ @ @ @ @ @ @ @ @ @ @ @ + .   ",
"  . + @ @ @ @ @ @ @ @ @ @ @ @ @ m ~ ~ ~ ~ ~ ~ ~ ~ ~ n ' ' ' ' o ~ e   ' ' ' ~ ~ ~ ~ ~ ~ ~ ~ ~ p @ @ @ @ @ @ @ @ @ @ @ @ @ + .   ",
"  . + @ @ @ @ @ @ @ @ @ @ @ @ @ q ~ ~ ~ ~ ~ ~ ~ ~ ~ ' ' ' '   r ~ s   ' ' ' ~ ~ ~ ~ ~ ~ ~ ~ ~ t @ @ @ @ @ @ @ @ @ @ @ @ @ + .   ",
"  . + @ @ @ @ @ @ @ @ @ @ @ @ @ u ~ ~ ~ ~ ~ ~ ~ ~ ~ ' ' ' '   v ~ ' ' ' ' ' ~ ~ ~ ~ ~ ~ ~ ~ ~ w @ @ @ @ @ @ @ @ @ @ @ @ @ + .   ",
"  . + @ @ @ @ @ @ @ @ @ @ @ @ @ x ~ ~ ~ ~ ~ ~ ~ ~ ~ ' ' ' '   y ~ ' ' ' ' ' ~ ~ ~ ~ ~ ~ ~ ~ ~ z @ @ @ @ @ @ @ @ @ @ @ @ @ + .   ",
"  . + @ @ @ @ @ @ @ @ @ @ @ @ @ @ : ~ ~ ~ ~ ~ ~ ~ ~ ' ' ' '   y ~ ' ' ' ' ' ~ ~ ~ ~ ~ ~ ~ ~ A @ @ @ @ @ @ @ @ @ @ @ @ @ @ + .   ",
"  . + @ @ @ @ @ @ @ @ @ @ @ @ @ @ B ~ ~ ~ ~ ~ ~ ~ ~   ' ' '   y ~ ' ' ' ' ' ~ ~ ~ ~ ~ ~ ~ ~ C @ @ @ @ @ @ @ @ @ @ @ @ @ @ + .   ",
"  . + @ @ @ @ @ @ @ @ @ @ @ @ @ @ D ~ ~ ~ ~ ~ ~ ~ ~ ~ ' ' '   y ~ ' ' ' ' ' ~ ~ ~ ~ ~ ~ ~ ~ E @ @ @ @ @ @ @ @ @ @ @ @ @ @ + .   ",
"  . + @ @ @ @ @ @ @ @ @ @ @ @ @ @ F ~ ~ ~ ~ ~ ~ ~ ~ ~ ' ' '   y ~ ' ' ' ' ' ~ ~ ~ ~ ~ ~ ~ ~ G @ @ @ @ @ @ @ @ @ @ @ @ @ @ + .   ",
"  . + @ @ @ @ @ @ @ @ @ @ @ @ @ @ H ~ ~ ~ ~ ~ ~ ~ ~ ~ I ' '   y ~ ' ' ' ' ~ ~ ~ ~ ~ ~ ~ ~ ~ J @ @ @ @ @ @ @ @ @ @ @ @ @ @ + .   ",
"  . + @ @ @ @ @ @ @ @ @ @ @ @ @ @ K ~ ~ ~ ~ ~ ~ ~ ~ ~ ~ ' '   y ~ ' ' ' L ~ ~ ~ ~ ~ ~ ~ ~ ~ 5 @ @ @ @ @ @ @ @ @ @ @ @ @ @ + .   ",
"  . + @ @ @ @ @ @ @ @ @ @ @ @ @ @ @ } ~ ~ ~ ~ ~ ~ ~ ~ ~ ~ '   M ~ L ' N ~ ~ ~ ~ ~ ~ ~ ~ ~ 7 @ @ @ @ @ @ @ @ @ @ @ @ @ @ @ + .   ",
"  . + @ @ @ @ @ @ @ @ @ @ @ @ @ @ @ O ~ ~ ~ ~ ~ ~ ~ ~ ~ ~ ~ ' ' ~ 9 ' ~ ~ ~ ~ ~ ~ ~ ~ ~ ~ P @ @ @ @ @ @ @ @ @ @ @ @ @ @ @ + .   ",
"  . + @ @ @ @ @ @ @ @ @ @ @ @ @ @ @ Q ~ ~ ~ ~ ~ ~ ~ ~ ~ ~ ~ ~ ~ ~ ~ ~ ~ ~ ~ ~ ~ ~ ~ ~ ~ ~ R @ @ @ @ @ @ @ @ @ @ @ @ @ @ @ + .   ",
"  . + @ @ @ @ @ @ @ @ @ @ @ @ @ @ @ S ~ ~ ~ ~ ~ ~ ~ ~ ~ ~ ~ ~ ~ ~ ~ ~ ~ ~ ~ ~ ~ ~ ~ ~ ~ ~ T @ @ @ @ @ @ @ @ @ @ @ @ @ @ @ + .   ",
"  . + @ @ @ @ @ @ @ @ @ @ @ @ @ @ @ U ~ ~ ~ ~ ~ ~ ~ ~ ~ ~ ~ ~ ~ ~ ~ ~ ~ ~ ~ ~ ~ ~ ~ ~ ~ ~ 4 @ @ @ @ @ @ @ @ @ @ @ @ @ @ @ + .   ",
"  . + @ @ @ @ @ @ @ @ @ @ @ @ @ @ @ V : ~ ~ ~ ~ ~ ~ ~ ~ ~ ~ ~ ~ ~ ~ ~ ~ ~ ~ ~ ~ ~ ~ ~ ~ ~ 6 @ @ @ @ @ @ @ @ @ @ @ @ @ @ @ + .   ",
"  . + @ @ @ @ @ @ @ @ @ @ @ @ @ @ @ @ V W X Y ~ ~ ~ ~ ~ ~ ~ ~ ~ ~ ~ ~ ~ ~ ~ ~ ~ ~ Z `  ...@ @ @ @ @ @ @ @ @ @ @ @ @ @ @ @ + .   ",
"  . + @ @ @ @ @ @ @ @ @ @ @ @ @ @ @ @ @ @ @ @ +.@.#.X $.%.} : ~ ~ : A { &.*.=.-.;.@ @ @ @ @ @ @ @ @ @ @ @ @ @ @ @ @ @ @ @ + .   ",
"  . + @ @ @ @ @ @ @ @ @ @ @ @ @ @ @ @ @ @ @ @ @ @ @ @ @ @ >.>.>.>.>.>.@ @ @ @ @ @ @ @ @ @ @ @ @ @ @ @ @ @ @ @ @ @ @ @ @ @ + .   ",
"  . + @ @ @ @ @ @ @ @ @ @ @ @ @ @ @ @ @ @ @ @ >.,.'.).!.~.{.].].].].{.~.!.).'.,.>.@ @ @ @ @ @ @ @ @ @ @ @ @ @ @ @ @ @ @ @ + .   ",
"  . + @ @ @ @ @ @ @ @ @ @ @ @ @ @ @ @ @ >.,.^./.(._.:.<.[.}.|.|.|.|.}.[.<.:._.(./.^.,.>.@ @ @ @ @ @ @ @ @ @ @ @ @ @ @ @ @ + .   ",
"  . + @ @ @ @ @ @ @ @ @ @ @ @ @ @ @ >.,.^.1.2.3.4.5.) 6.7.8.9.0.0.9.8.7.6.) 5.4.3.2.1.^.,.>.@ @ @ @ @ @ @ @ @ @ @ @ @ @ @ + .   ",
"  . + @ @ @ @ @ @ @ @ @ @ @ @ @ @ >.'.!.a.b.c.d.e.8.f.- -             - - f.8.e.d.c.b.a.!.'.>.@ @ @ @ @ @ @ @ @ @ @ @ @ @ + .   ",
"  . + @ @ @ @ @ @ @ @ @ @ @ @ @ >.g.h.i.j.k.$ l.f.-                         - f.l.$ k.j.i.h.g.>.@ @ @ @ @ @ @ @ @ @ @ @ @ + .   ",
"  . + @ @ @ @ @ @ @ @ @ @ @ @ @ >.^.].m.n.) l.f.-                             - f.l.) n.m.].^.>.@ @ @ @ @ @ @ @ @ @ @ @ @ + .   ",
"  . + @ @ @ @ @ @ @ @ @ @ @ @ @ ,.o.p.q.r.s.9.-                                 - 9.s.r.q.p.o.,.@ @ @ @ @ @ @ @ @ @ @ @ @ + .   ",
"  . + @ @ @ @ @ @ @ @ @ @ @ @ @ ,.t.u.v.w.$ 8.- -                             - - 8.$ w.v.u.t.,.@ @ @ @ @ @ @ @ @ @ @ @ @ + .   ",
"  . + @ @ @ @ @ @ @ @ @ @ @ @ @ >.x.1.y.z.A.6.B.-                             - B.6.A.z.y.1.x.>.@ @ @ @ @ @ @ @ @ @ @ @ @ + .   ",
"  . + @ @ @ @ @ @ @ @ @ @ @ @ @ @ >.C.D.y.E.F.G.l.f.-                     - f.l.G.F.E.y.D.C.>.@ @ @ @ @ @ @ @ @ @ @ @ @ @ + .   ",
"  . + @ @ @ @ @ @ @ @ @ @ @ @ @ @ @ >.x.H.p.I.J.K.L.M.8.0.f.- - - - f.0.8.M.L.K.J.I.p.H.x.>.@ @ @ @ @ @ @ @ @ @ @ @ @ @ @ + .   ",
"  . + @ @ @ @ @ @ @ @ @ @ @ @ @ @ @ @ >.,.C.N.O.P.q.J.r.d.Q.R.$ $ R.Q.d.r.J.q.P.O.N.C.,.>.@ @ @ @ @ @ @ @ @ @ @ @ @ @ @ @ + .   ",
"  . + @ @ @ @ @ @ @ @ @ @ @ @ @ @ @ @ @ @ @ >.'.S.T.D.a._.P.% % % % P._.a.D.T.S.'.>.@ @ @ @ @ @ @ @ @ @ @ @ @ @ @ @ @ @ @ + .   ",
"  . + @ @ @ @ @ @ @ @ @ @ @ @ @ @ @ @ @ @ @ @ @ @ >.>.,.,.'.x.x.x.x.'.,.,.>.>.@ @ @ @ @ @ @ @ @ @ @ @ @ @ @ @ @ @ @ @ @ @ + .   ",
"  . + @ @ @ @ @ @ @ @ @ @ @ @ @ @ @ @ @ @ @ @ @ @ @ @ @ @ @ @ @ @ @ @ @ @ @ @ @ @ @ @ @ @ @ @ @ @ @ @ @ @ @ @ @ @ @ @ @ @ + .   ",
"  . + @ @ @ @ @ @ @ @ @ @ @ @ @ @ @ @ @ @ @ @ @ @ @ @ @ @ @ @ @ @ @ @ @ @ @ @ @ @ @ @ @ @ @ @ @ @ @ @ @ @ @ @ @ @ @ @ @ @ + .   ",
"  . + @ @ @ @ @ @ @ @ @ @ @ @ @ @ @ @ @ @ @ @ @ @ @ @ @ @ @ @ @ @ @ @ @ @ @ @ @ @ @ @ @ @ @ @ @ @ @ @ @ @ @ @ @ @ @ @ @ @ + .   ",
"  . + @ @ @ @ @ @ @ @ @ @ @ @ @ @ @ @ @ @ @ @ @ @ @ @ @ @ @ @ @ @ @ @ @ @ @ @ @ @ @ @ @ @ @ @ @ @ @ @ @ @ @ @ @ @ @ @ @ @ + .   ",
"  . + + + + + + + + + + + + + + + + + + + + + + + + + + + + + + + + + + + + + + + + + + + + + + + + + + + + + + + + + + + + .   ",
"  . . . . . . . . . . . . . . . . . . . . . . . . . . . . . . . . . . . . . . . . . . . . . . . . . . . . . . . . . . . . . .   ",
"                                                                                                                                "};
