/* XPM */
static char * player_xpm[] = {
"64 64 663 2",
"  	c #000000",
". 	c #484848",
"+ 	c #1F1F1F",
"@ 	c #141414",
"# 	c #151515",
"$ 	c #474747",
"% 	c #7A7A7A",
"& 	c #595959",
"* 	c #3E3E3E",
"= 	c #050505",
"- 	c #5C5C5C",
"; 	c #6E6E6E",
"> 	c #C7C7C7",
", 	c #C6C6C6",
"' 	c #C5C5C5",
") 	c #9A9A9A",
"! 	c #999999",
"~ 	c #A0A0A0",
"{ 	c #181818",
"] 	c #0E0E0E",
"^ 	c #BDBDBD",
"/ 	c #B8B8B8",
"( 	c #898989",
"_ 	c #707070",
": 	c #333333",
"< 	c #4A4A4A",
"[ 	c #3A3A3A",
"} 	c #2D2D2D",
"| 	c #1B1B1B",
"1 	c #818181",
"2 	c #6B6B6B",
"3 	c #010101",
"4 	c #C0C0C0",
"5 	c #A3A3A3",
"6 	c #131313",
"7 	c #1E1E1E",
"8 	c #343434",
"9 	c #616161",
"0 	c #626262",
"a 	c #5F5F5F",
"b 	c #4C4C4C",
"c 	c #3D3D3D",
"d 	c #2B2B2B",
"e 	c #0F0F0F",
"f 	c #171717",
"g 	c #232323",
"h 	c #909090",
"i 	c #BEBEBE",
"j 	c #6F6F6F",
"k 	c #222222",
"l 	c #444444",
"m 	c #5E5E5E",
"n 	c #606060",
"o 	c #434343",
"p 	c #757575",
"q 	c #505050",
"r 	c #5A5A5A",
"s 	c #5B5B5B",
"t 	c #4F4F4F",
"u 	c #414141",
"v 	c #464646",
"w 	c #515151",
"x 	c #393939",
"y 	c #2C2C2C",
"z 	c #303030",
"A 	c #777777",
"B 	c #B2B2B2",
"C 	c #B9B9B9",
"D 	c #202020",
"E 	c #535353",
"F 	c #3C3C3C",
"G 	c #454545",
"H 	c #4E4E4E",
"I 	c #4D4D4D",
"J 	c #939393",
"K 	c #B5B5B5",
"L 	c #838383",
"M 	c #353535",
"N 	c #262626",
"O 	c #5D5D5D",
"P 	c #323232",
"Q 	c #666666",
"R 	c #575757",
"S 	c #4B4B4B",
"T 	c #404040",
"U 	c #1D1D1D",
"V 	c #565656",
"W 	c #3F3F3F",
"X 	c #6C6C6C",
"Y 	c #272727",
"Z 	c #585858",
"` 	c #3B3B3B",
" .	c #363636",
"..	c #6C5242",
"+.	c #9A755C",
"@.	c #3A3837",
"#.	c #313131",
"$.	c #555555",
"%.	c #C3C3C3",
"&.	c #070707",
"*.	c #1C1C1C",
"=.	c #000103",
"-.	c #A87F65",
";.	c #F4BA94",
">.	c #1E140E",
",.	c #313132",
"'.	c #212121",
").	c #B3B3B3",
"!.	c #0D0D0D",
"~.	c #E1AB88",
"{.	c #F1B892",
"].	c #F5BB95",
"^.	c #EDB590",
"/.	c #A67E64",
"(.	c #282828",
"_.	c #2F2F2F",
":.	c #545454",
"<.	c #494949",
"[.	c #6B5141",
"}.	c #B0856A",
"|.	c #F3C49F",
"1.	c #F8C49E",
"2.	c #AB8166",
"3.	c #191919",
"4.	c #2E2826",
"5.	c #1B0C04",
"6.	c #1C0D04",
"7.	c #424141",
"8.	c #424242",
"9.	c #3B332E",
"0.	c #36281E",
"a.	c #382E24",
"b.	c #36281F",
"c.	c #967159",
"d.	c #F2B892",
"e.	c #FBD3AD",
"f.	c #F8CAA4",
"g.	c #F2B893",
"h.	c #AF8469",
"i.	c #372A23",
"j.	c #86502D",
"k.	c #915731",
"l.	c #C99979",
"m.	c #F7C19B",
"n.	c #FFD9B3",
"o.	c #F7C39D",
"p.	c #DCA480",
"q.	c #915832",
"r.	c #915732",
"s.	c #935A34",
"t.	c #E9B28E",
"u.	c #57321A",
"v.	c #5E371D",
"w.	c #0E0502",
"x.	c #37281D",
"y.	c #C49576",
"z.	c #E5AE8B",
"A.	c #F6BE98",
"B.	c #F9C8A2",
"C.	c #BD9375",
"D.	c #916B52",
"E.	c #5F381F",
"F.	c #A17A60",
"G.	c #A27B61",
"H.	c #35251E",
"I.	c #402D24",
"J.	c #6D6D6D",
"K.	c #7B7370",
"L.	c #E4AE8A",
"M.	c #E4AD8A",
"N.	c #968175",
"O.	c #686868",
"P.	c #392820",
"Q.	c #3D2B22",
"R.	c #734425",
"S.	c #87502D",
"T.	c #DDDDDD",
"U.	c #FFFFFF",
"V.	c #F8F8F8",
"W.	c #E1E2E2",
"X.	c #F4F4F4",
"Y.	c #794827",
"Z.	c #814D2A",
"`.	c #C5C4C4",
" +	c #7C4B2B",
".+	c #AE7856",
"++	c #B88361",
"@+	c #D8C5B9",
"#+	c #E8D6CC",
"$+	c #AAAAAA",
"%+	c #DFDFDF",
"&+	c #D2D2D2",
"*+	c #ABABAB",
"=+	c #FCFCFC",
"-+	c #D9D9D9",
";+	c #A5A5A5",
">+	c #AD8368",
",+	c #C09274",
"'+	c #969696",
")+	c #CACACA",
"!+	c #B7B7B7",
"~+	c #E6E6E6",
"{+	c #ACACAC",
"]+	c #DCCDC5",
"^+	c #EFDACD",
"/+	c #A67657",
"(+	c #B8825E",
"_+	c #7C4A29",
":+	c #BBB6B4",
"<+	c #915833",
"[+	c #C68E6A",
"}+	c #D09A77",
"|+	c #D7BBA9",
"1+	c #E2C5B3",
"2+	c #8E8179",
"3+	c #DCDBDA",
"4+	c #C8CBC5",
"5+	c #869479",
"6+	c #E0E0DF",
"7+	c #B4B4B4",
"8+	c #DFAA87",
"9+	c #646464",
"0+	c #A1A1A1",
"a+	c #E3E3E3",
"b+	c #949F8B",
"c+	c #B8BDB3",
"d+	c #91857E",
"e+	c #D2B9A8",
"f+	c #EDCFBB",
"g+	c #BC8B6B",
"h+	c #D19874",
"i+	c #BDB7B4",
"j+	c #D59D7A",
"k+	c #ECCCB7",
"l+	c #C1A18C",
"m+	c #F7F4F2",
"n+	c #E3EDDA",
"o+	c #ABCD88",
"p+	c #757773",
"q+	c #717172",
"r+	c #636364",
"s+	c #717272",
"t+	c #717072",
"u+	c #A6C586",
"v+	c #D5E4C7",
"w+	c #FEFEFE",
"x+	c #C3A490",
"y+	c #E3C3AF",
"z+	c #EECFBB",
"A+	c #CD9C7C",
"B+	c #E3AA86",
"C+	c #E8B08B",
"D+	c #854F2B",
"E+	c #74594A",
"F+	c #9A8476",
"G+	c #E2C2AE",
"H+	c #FBF7F5",
"I+	c #A4C385",
"J+	c #AFB087",
"K+	c #B39785",
"L+	c #A28978",
"M+	c #B2A988",
"N+	c #A4C285",
"O+	c #AACC88",
"P+	c #FFFEFE",
"Q+	c #E3C4B1",
"R+	c #AE9586",
"S+	c #6E5B50",
"T+	c #86502C",
"U+	c #D9A27E",
"V+	c #C6C5C5",
"W+	c #A99188",
"X+	c #C5997F",
"Y+	c #CC9572",
"Z+	c #905630",
"`+	c #8E6246",
" @	c #9C7A65",
".@	c #B99F8F",
"+@	c #C9C6C4",
"@@	c #B5BEAE",
"#@	c #88A46C",
"$@	c #92936E",
"%@	c #9B806F",
"&@	c #A27A61",
"*@	c #DFB18F",
"=@	c #EBBC98",
"-@	c #9D7F6C",
";@	c #958D6E",
">@	c #AAB79F",
",@	c #CCCCCC",
"'@	c #BAA191",
")@	c #A38470",
"!@	c #8E654A",
"~@	c #C28B69",
"{@	c #CC9A7D",
"]@	c #A99187",
"^@	c #C1BDBC",
"/@	c #C68E69",
"(@	c #B98766",
"_@	c #050302",
":@	c #050402",
"<@	c #040201",
"[@	c #483528",
"}@	c #F6BB95",
"|@	c #FBCFA9",
"1@	c #FDD4AE",
"2@	c #83624D",
"3@	c #040302",
"4@	c #A5785A",
"5@	c #D19872",
"6@	c #A07E6F",
"7@	c #BEB8B6",
"8@	c #DFA57F",
"9@	c #F1B792",
"0@	c #F9D1AC",
"a@	c #ECC19C",
"b@	c #D39A75",
"c@	c #F9D3AE",
"d@	c #F5C6A1",
"e@	c #F2BA95",
"f@	c #FFD8B2",
"g@	c #F4C09B",
"h@	c #F4C29C",
"i@	c #FBD5B0",
"j@	c #D8A27E",
"k@	c #E5B792",
"l@	c #FAD5AF",
"m@	c #F1B893",
"n@	c #E3A984",
"o@	c #B6AAA5",
"p@	c #C6C5C4",
"q@	c #C4C1C1",
"r@	c #AF9E97",
"s@	c #B58970",
"t@	c #E6AC86",
"u@	c #F7C6A0",
"v@	c #F5C6A0",
"w@	c #EDBF9A",
"x@	c #FED8B2",
"y@	c #FDD2AC",
"z@	c #FBCCA6",
"A@	c #FCD0AA",
"B@	c #EAB38E",
"C@	c #EFBB95",
"D@	c #FACAA4",
"E@	c #E7AD87",
"F@	c #CE9571",
"G@	c #B68363",
"H@	c #AF9E98",
"I@	c #C0BBB9",
"J@	c #A68A7F",
"K@	c #AA7759",
"L@	c #D39974",
"M@	c #ECB28D",
"N@	c #F6C49F",
"O@	c #FED7B1",
"P@	c #F6BF99",
"Q@	c #F3B993",
"R@	c #EFB690",
"S@	c #D49A74",
"T@	c #B57F60",
"U@	c #9C7461",
"V@	c #BAB1AD",
"W@	c #915730",
"X@	c #C08A67",
"Y@	c #FACBA5",
"Z@	c #D19A77",
"`@	c #B2A29C",
" #	c #C2BFBE",
".#	c #B99D90",
"+#	c #BD8664",
"@#	c #D4A17E",
"##	c #E8B792",
"$#	c #F9C7A1",
"%#	c #EBBA95",
"&#	c #DBA984",
"*#	c #BA9785",
"=#	c #B8ADAA",
"-#	c #9D7867",
";#	c #B8866B",
">#	c #CE9570",
",#	c #E6AD89",
"'#	c #BF8B6C",
")#	c #B1A09A",
"!#	c #AE9A93",
"~#	c #A5887C",
"{#	c #AAAEB8",
"]#	c #69799D",
"^#	c #5A658D",
"/#	c #60587D",
"(#	c #E2A985",
"_#	c #866E7E",
":#	c #565F87",
"<#	c #9BA1B1",
"[#	c #ADB1B9",
"}#	c #8599B5",
"|#	c #0076B3",
"1#	c #0067A6",
"2#	c #006FAD",
"3#	c #3B7AB1",
"4#	c #CFA292",
"5#	c #6D83AB",
"6#	c #0071AF",
"7#	c #0067A5",
"8#	c #0074B1",
"9#	c #7290B4",
"0#	c #A8ACB7",
"a#	c #C6C6C7",
"b#	c #546B96",
"c#	c #007EBB",
"d#	c #00AEEF",
"e#	c #0091D2",
"f#	c #00A0E1",
"g#	c #00A9EA",
"h#	c #004789",
"i#	c #00488A",
"j#	c #009DDC",
"k#	c #00A5E6",
"l#	c #0090D1",
"m#	c #00ABEC",
"n#	c #008ECB",
"o#	c #134C8B",
"p#	c #AFB2BA",
"q#	c #496393",
"r#	c #1B9EDC",
"s#	c #03B0EF",
"t#	c #1CC2F5",
"u#	c #09B3F0",
"v#	c #00ABEB",
"w#	c #00A5E5",
"x#	c #486696",
"y#	c #9FA5B3",
"z#	c #A9ADB7",
"A#	c #8599B4",
"B#	c #0081BF",
"C#	c #009DDE",
"D#	c #009ADA",
"E#	c #008ECC",
"F#	c #00A6E7",
"G#	c #02AFF0",
"H#	c #15C0F8",
"I#	c #06B3F1",
"J#	c #009EDF",
"K#	c #0090CE",
"L#	c #0097D6",
"M#	c #00A2E2",
"N#	c #0082C0",
"O#	c #7594B7",
"P#	c #A0A5B3",
"Q#	c #7280A0",
"R#	c #0E73AF",
"S#	c #00ADEE",
"T#	c #0095D6",
"U#	c #007BBA",
"V#	c #004A8B",
"W#	c #01AEEF",
"X#	c #00AEF0",
"Y#	c #005D9B",
"Z#	c #006FAE",
"`#	c #0E84C0",
" $	c #496494",
".$	c #004D8D",
"+$	c #00A3E3",
"@$	c #0091CF",
"#$	c #13BEF7",
"$$	c #1ECBFF",
"%$	c #17C3FA",
"&$	c #0081BE",
"*$	c #005191",
"=$	c #979FB0",
"-$	c #B4A6A1",
";$	c #B1978F",
">$	c #BD9690",
",$	c #4F86BA",
"'$	c #0071AE",
")$	c #1ECCFF",
"!$	c #18C3FA",
"~$	c #1483C0",
"{$	c #BB9692",
"]$	c #B4968F",
"^$	c #AF9C95",
"/$	c #A38477",
"($	c #B5805E",
"_$	c #F7BF99",
":$	c #6A688D",
"<$	c #005C9A",
"[$	c #00ACEC",
"}$	c #0069A7",
"|$	c #005494",
"1$	c #1D4D8B",
"2$	c #F4BD98",
"3$	c #C6916F",
"4$	c #986B54",
"5$	c #B98D6C",
"6$	c #FFDAB3",
"7$	c #6E7192",
"8$	c #1F4E8C",
"9$	c #FDD8B3",
"0$	c #CCA281",
"a$	c #17C2F9",
"b$	c #1BC8FD",
"c$	c #1CC9FD",
"d$	c #03B1F0",
"e$	c #FDD7B2",
"f$	c #CCA280",
"g$	c #BCB4B2",
"h$	c #B38D7A",
"i$	c #CA9C7A",
"j$	c #007AB7",
"k$	c #00A8E8",
"l$	c #19C4FB",
"m$	c #19C6FB",
"n$	c #1AC6FC",
"o$	c #04ABEB",
"p$	c #0089C7",
"q$	c #D8AC8A",
"r$	c #B18164",
"s$	c #BCB5B2",
"t$	c #C3C1C0",
"u$	c #C0BBBA",
"v$	c #DFA682",
"w$	c #006CAB",
"x$	c #0094D5",
"y$	c #0078B7",
"z$	c #FAC9A3",
"A$	c #EDB48F",
"B$	c #90562F",
"C$	c #B7ACA8",
"D$	c #007BB8",
"E$	c #00A8E9",
"F$	c #19C5FB",
"G$	c #04ACEB",
"H$	c #008AC8",
"I$	c #EDB48E",
"J$	c #D69E7A",
"K$	c #F1BE98",
"L$	c #006FAC",
"M$	c #0095D3",
"N$	c #16ACDF",
"O$	c #17ADDF",
"P$	c #0398D5",
"Q$	c #F4C49F",
"R$	c #E4AB85",
"S$	c #C78E69",
"T$	c #E3B18C",
"U$	c #00498B",
"V$	c #00498A",
"W$	c #1E4E8C",
"X$	c #EABB96",
"Y$	c #A68576",
"Z$	c #B98361",
"`$	c #80838C",
" %	c #7393A7",
".%	c #96B7CB",
"+%	c #B2D3E6",
"@%	c #A5C5D9",
"#%	c #98B9CD",
"$%	c #B3D4E7",
"%%	c #9EBFD2",
"&%	c #A0C1D4",
"*%	c #9ABBCE",
"=%	c #7F9FB2",
"-%	c #587689",
";%	c #F4BD97",
">%	c #C99370",
",%	c #9D6E56",
"'%	c #B5A8A3",
")%	c #B7988A",
"!%	c #CE9774",
"~%	c #89726C",
"{%	c #7B838D",
"]%	c #81A1B3",
"^%	c #B8D9EB",
"/%	c #ABCCDE",
"(%	c #9CBCCE",
"_%	c #96B5C6",
":%	c #9BBBCD",
"<%	c #A6C7D9",
"[%	c #BADBED",
"}%	c #89A9BB",
"|%	c #7D8C99",
"1%	c #786A6B",
"2%	c #CD9674",
"3%	c #BD9885",
"4%	c #B09F98",
"5%	c #BAB1AE",
"6%	c #935D3E",
"7%	c #7F6864",
"8%	c #567789",
"9%	c #B7D8EA",
"0%	c #98B9CB",
"a%	c #5A798B",
"b%	c #5C7A8B",
"c%	c #8FAFC1",
"d%	c #BADBEE",
"e%	c #688899",
"f%	c #766D70",
"g%	c #B2A39D",
"h%	c #A6ADB2",
"i%	c #A9AFB4",
"j%	c #B8BBBD",
"k%	c #95A0A7",
"l%	c #A2A8B2",
"m%	c #37608A",
"n%	c #7AB1DA",
"o%	c #729FC5",
"p%	c #6586A9",
"q%	c #365F8A",
"r%	c #A6ABB4",
"s%	c #B6B9BD",
"t%	c #5E80A4",
"u%	c #6E98BD",
"v%	c #7CB4DD",
"w%	c #446E97",
"x%	c #8D98A8",
"y%	c #9FA4B2",
"z%	c #0093D3",
"A%	c #007AB9",
"B%	c #005797",
"C%	c #A3A8B4",
"D%	c #B5B7BD",
"E%	c #005595",
"F%	c #0070AE",
"G%	c #005796",
"H%	c #8892A8",
"I%	c #00A0E0",
"J%	c #008DCD",
"K%	c #0083C3",
"L%	c #009BDB",
"M%	c #00AFF0",
"N%	c #848EA7",
"O%	c #5A6F98",
"P%	c #0072AF",
"Q%	c #006CAA",
"R%	c #0064A2",
"S%	c #005F9E",
"T%	c #006AA8",
"U%	c #005090",
"V%	c #4D6695",
"W%	c #7482A0",
"X%	c #ADADAD",
"Y%	c #536487",
"Z%	c #335182",
"`%	c #3D5785",
" &	c #355282",
".&	c #2A4C7F",
"+&	c #003F78",
"@&	c #A3A6B0",
"#&	c #B5B7BB",
"$&	c #254A7D",
"%&	c #325181",
"&&	c #365383",
"*&	c #2F4F80",
"=&	c #ABABAC",
"-&	c #BCBCBC",
";&	c #737373",
">&	c #656565",
",&	c #525252",
"'&	c #676767",
")&	c #060606",
"!&	c #717171",
"~&	c #0A0A0A",
"{&	c #636363",
"                                                                                                                                ",
"  . . . . . . . . . . . . . . . . . . . . . . . . . . . . . . . . . . . . + @ # $ . . . . . . . . . . . . . . . . . . . . . .   ",
"  . % % % % % % % % % % % % % % % % % % % % % % % % % % % % % % % % % % % & * = - ; % % % % % % % % % % % % % % % % % % % % .   ",
"  . % > > > > > > > > > > > > > > > > > > > > > > , ' ' ' ' ' ' ' ' ' ' ' > )     ! > > > > > > > > > > > > > > > > > > > % .   ",
"  . % > > > > > > > > > > > > > > > > > > > > > > ~ { { { { { { { { { { ] ^ )     ! > > > > > > > > > > > > > > > > > > > % .   ",
"  . % > > > > > > > > > > > > > > > > > > > / ( ( _ : < < < < < < < [ } | 1 2 | 3 ! > > > > > > > > > > > > > > > > > > > % .   ",
"  . % > > > > > > > > > > > > > > > > > > 4 5 6 7 8 . 9 0 0 a a a a b c d e f g 3 h i > > > > > > > > > > > > > > > > > > % .   ",
"  . % > > > > > > > > > > > > > > > > > > j k l m 0 0 0 0 n l l l l l l l d |       o > > > > > > > > > > > > > > > > > > % .   ",
"  . % > > > > > > > > > > > > > > > > ^ p q l r 9 s t u . q r r r r r r r u v w x y z A B > > > > > > > > > > > > > > > > % .   ",
"  . % > > > > > > > > > > > > > > > C 5 D o E 0 & t * F G H 0 0 9 - n 0 0 l I - I * } e J K > > > > > > > > > > > > > > > % .   ",
"  . % > > > > > > > > > > > > > > > L { l s 0 0 M N N n 0 0 0 0 O l - 0 0 P M G 0 E u N 6 Q > > > > > > > > > > > > > > > % .   ",
"  . % > > > > > > > > > > > > > > > L { l s R d c S r 0 0 9 S T [ l - s S y k U < V r W g Q > > > > > > > > > > > > > > > % .   ",
"  . % > > > > > > > > > > > > > , 5 X D l b v Y b Z 0 & & R `  .[ q R w ` k ..+.@.b Z q #.$.5 4 > > > > > > > > > > > > > % .   ",
"  . % > > > > > > > > > > > > > %.&.*.y l g k l m 0 0 v l o N ` S 0 I F N =.-.;.>.,.. 0 u '.  ).> > > > > > > > > > > > > % .   ",
"  . % > > > > > > > > > > > > > %.&.*.y l g k l m Z $ 6 !.# o R - $ P '.  ~.{.].^./.k 0 u '.  ).> > > > > > > > > > > > > % .   ",
"  . % > > > > > > > > > > > > > %.&.*.(.z _.F :.<.W z _.` G l v o z '.[.}.|.1.].].2.3.$.[ '.  ).> > > > > > > > > > > > > % .   ",
"  . % > > > > > > > > > > > > > %.&.*.g   x I n 4.5.6.7.E m 8.9.0.a.b.c.d.e.f.g.].h.i.o #.'.  ).> > > > > > > > > > > > > % .   ",
"  . % > > > > > > > > > > > > > %.&.*.g   x x   j.k.k.6.3 3   l.m.n.o.p.k.q.r.s.;.].t.  7 '.  ).> > > > > > > > > > > > > % .   ",
"  . % > > > > > > > > > > > > > %.&.*.g   g g   u.v.v.w.  x.y.z.A.B.C.D.v.v.v.E.F.G.+.  7 '.  ).> > > > > > > > > > > > > % .   ",
"  . % > > > > > > > > > > > > > %.&.H.I.  O J.J.J.J.J.J.J.K.L.M.M.M.N.J.J.J.J.J.J.J.O.  P.Q.  ).> > > > > > > > > > > > > % .   ",
"  . % > > > > > > > > > > > > > %.&.R.S.  T.U.U.U.U.U.U.U.V.        W.U.U.U.U.U.U.U.X.  Y.Z.  ).> > > > > > > > > > > > > % .   ",
"  . % > > > > > > > > > > > > > `. +.+++  @+#+$+%+&+*+=+-+;+  >+,+  '+)+U.!+> ~+{+]+^+  /+(+_+:+> > > > > > > > > > > > > % .   ",
"  . % > > > > > > > > > > > > > `.<+[+}+  |+1+2+3+4+5+6+7+;   l.8+  9+0+a+b+c+~+d+e+f+  g+h+k.i+> > > > > > > > > > > > > % .   ",
"  . % > > > > > > > > > > > > > `.<+j+M.  |+k+l+m+n+o+p+q+;   l.8+  r+s+t+u+v+w+x+y+z+  A+B+k.i+> > > > > > > > > > > > > % .   ",
"  . % > > > > > > > > > > > > > `.<+j+C+D+E+F+G+H+n+o+I+J+K+  l.8+  L+M+N+O+v+P+Q+R+S+T+U+B+k.i+> > > > > > > > > > > > > % .   ",
"  . % > > > > > > > > > > > > > V+W+X+Y+Z+`+ @.@+@@@#@#@$@%@&@*@=@F.-@;@#@#@>@,@'@)@!@k.~@{@]@^@> > > > > > > > > > > > > % .   ",
"  . % > > > > > > > > > > > > > > > W+k.k./@(@_@:@_@<@:@_@[@}@|@1@].2@_@:@<@3@:@_@4@5@Z+k.6@> > > > > > > > > > > > > > > % .   ",
"  . % > > > > > > > > > > > > > > > V+7@k./@8@9@0@a@b@c@d@e@f@n.n.f@g@h@i@j@k@l@m@n@5@Z+o@p@> > > > > > > > > > > > > > > % .   ",
"  . % > > > > > > > > > > > > > > > > q@r@s@[+t@u@v@w@x@y@z@n.n.n.n.|@A@n.B@C@D@E@F@G@H@I@> > > > > > > > > > > > > > > > % .   ",
"  . % > > > > > > > > > > > > > > > > > > J@K@L@M@N@O@O@f@n.n.n.n.n.n.f@O@P@Q@R@S@T@U@> > > > > > > > > > > > > > > > > > % .   ",
"  . % > > > > > > > > > > > > > > > > > > > V@W@Z+X@].].Y@n.n.n.n.n.n.A@].].Z@Z+W@`@> > > > > > > > > > > > > > > > > > > % .   ",
"  . % > > > > > > > > > > > > > > > > > > >  #o@o@.#+#+#@###$#$#$#$#%#&#+#+#*#o@o@I@> > > > > > > > > > > > > > > > > > > % .   ",
"  . % > > > > > > > > > > > > > > > > > > > > > > =#-#-#;#>#,#,#,#,#b@'#-#-#)#> > > > > > > > > > > > > > > > > > > > > > % .   ",
"  . % > > > > > > > > > > > > > > > > > > > > > > > > > !#W@Z+Z+Z+Z+W@~#> > > > > > > > > > > > > > > > > > > > > > > > > % .   ",
"  . % > > > > > > > > > > > > > > > > > > > > > > {#]#]#^#/#(#(#(#(#_#:#]#]#<#> > > > > > > > > > > > > > > > > > > > > > % .   ",
"  . % > > > > > > > > > > > > > > > > > > > > > [#}#|#1#2#3#4#4#4#4#5#6#7#8#9#0#a#> > > > > > > > > > > > > > > > > > > > % .   ",
"  . % > > > > > > > > > > > > > > > > > > > > > b#c#d#e#f#g#h#i#i#i#j#k#l#m#n#o#, > > > > > > > > > > > > > > > > > > > > % .   ",
"  . % > > > > > > > > > > > > > > > > > > > p#q#r#g#d#e#f#s#t#t#t#t#u#k#l#m#v#w#x#y#> > > > > > > > > > > > > > > > > > > % .   ",
"  . % > > > > > > > > > > > > > > > > > > z#A#B#C#D#E#C#F#G#H#H#H#H#I#g#J#K#L#M#N#O#P#> > > > > > > > > > > > > > > > > > % .   ",
"  . % > > > > > > > > > > > > > > > > > > Q#R#S#T#U#V#m#d#W#W#W#W#W#W#d#X#Y#Z#e#S#`# $> > > > > > > > > > > > > > > > > > % .   ",
"  . % > > > > > > > > > > > > > > > > > > , {#.$+$@$V#m##$$$$$$$$$$$$$%$X#Y#&$S#*$=$, > > > > > > > > > > > > > > > > > > % .   ",
"  . % > > > > > > > > > > > > > > > > > > -$;$>$,$'$V#m##$)$)$)$)$)$)$!$X#Y#7#~${$]$^$> > > > > > > > > > > > > > > > > > % .   ",
"  . % > > > > > > > > > > > > > > > > > > /$($_$:$*$<$[$#$)$)$)$)$)$)$!$d#}$|$1$2$3$4$> > > > > > > > > > > > > > > > > > % .   ",
"  . % > > > > > > > > > > > > > > > > > > /$5$6$7$c#X#d##$)$)$)$)$)$)$!$d#d#E#8$9$0$4$> > > > > > > > > > > > > > > > > > % .   ",
"  . % > > > > > > > > > > > > > > > > > > /$5$n.7$c#d#a$b$)$)$)$)$)$)$c$%$d$E#8$e$f$4$> > > > > > > > > > > > > > > > > > % .   ",
"  . % > > > > > > > > > > > > > > > > `.g$h$i$n.7$j$k$l$m$m$m$m$m$m$m$m$n$o$p$8$e$q$r$s$t$> > > > > > > > > > > > > > > > % .   ",
"  . % > > > > > > > > > > > > > > > > u$k.v$1.n.7$w$l#S#d#d#d#d#d#d#d#d#d#x$y$8$e$z$A$B$C$> > > > > > > > > > > > > > > > % .   ",
"  . % > > > > > > > > > > > > > > > > u$k.v$1.n.7$D$E$F$n$n$n$n$n$n$n$n$n$G$H$8$e$z$I$B$C$> > > > > > > > > > > > > > > > % .   ",
"  . % > > > > > > > > > > > > > > > > u$k.J$K$n.7$L$M$N$O$O$O$O$O$O$O$O$O$P$D$8$e$Q$R$Z+C$> > > > > > > > > > > > > > > > % .   ",
"  . % > > > > > > > > > > > > > > > > I@k.S$T$6$7$U$V$i#i#V$i#i#i#i#i#i#i#V$U$W$e$X$5@Z+C$> > > > > > > > > > > > > > > > % .   ",
"  . % > > > > > > > > > > > > > > > > , t$Y$Z$A.`$ %.%+%@%#%$%$%$%$%%%&%$%*%=%-%;%>%,%q@V+> > > > > > > > > > > > > > > > % .   ",
"  . % > > > > > > > > > > > > > > > > > > '%)%!%~%{%]%^%/%(%_%_%_%_%:%<%[%}%|%1%2%3%4%> > > > > > > > > > > > > > > > > > % .   ",
"  . % > > > > > > > > > > > > > > > > > > > 5%6%6%7%8%9%/%0%8%a%b%8%c%<%d%e%f%6%6%g%> > > > > > > > > > > > > > > > > > > % .   ",
"  . % > > > > > > > > > > > > > > > > > > > > > > h%8%9%/%0%8%i%j%8%c%<%d%e%k%> > > > > > > > > > > > > > > > > > > > > > % .   ",
"  . % > > > > > > > > > > > > > > > > > > > > > > l%m%n%o%p%q%r%s%m%t%u%v%w%x%> > > > > > > > > > > > > > > > > > > > > > % .   ",
"  . % > > > > > > > > > > > > > > > > > > > > > > y%V#z%A%B%V#C%D%V#E%F%T#G%H%> > > > > > > > > > > > > > > > > > > > > > % .   ",
"  . % > > > > > > > > > > > > > > > > > > > > > > y%V#m#I%J%U$C%D%V#K%L%M%Y#H%> > > > > > > > > > > > > > > > > > > > > > % .   ",
"  . % > > > > > > > > > > > > > > > > > > > > > N%O%V#P%Q%R%V#C%D%V#S%T%8#U%V%W%, > > > > > > > > > > > > > > > > > > > > % .   ",
"  . % > > > > > > > > > > > > > > > > > > > 4 X%Y%Z%`%`% &.&+&@&#&+&$&%&`%`%&&*&=&-&> > > > > > > > > > > > > > > > > > > % .   ",
"  . % > > > > > > > > > > > > > > > > > > > *+  H 0 ;&;&>&,&  5 K   < n ;&;&'&:.)&! > > > > > > > > > > > > > > > > > > > % .   ",
"  . % > > > > > > > > > > > > > > > > > > > *+  Q _ ;&;&>&,&  5 K   < n ;&;&!&; ~&! > > > > > > > > > > > > > > > > > > > % .   ",
"  . % % % % % % % % % % % % % % % % % % % % O.  :.s s s q u   {&;   [ b s s s s &.O % % % % % % % % % % % % % % % % % % % % .   ",
"  . . . . . . . . . . . . . . . . . . . . . c                 x u                 M . . . . . . . . . . . . . . . . . . . . .   ",
"                                                                                                                                "};
